# xmcd
#
# Track frame offsets:
#	150
#	17554
#	30764
#	47815
#	61445
#	79805
#	98335
#	111485
#	124671
#	140621
#	160787
#	178962
#	196192
#
# Disc length: 2778 seconds
#
# Revision: 1
# Processed by: cddbd v1.5.2PL0 Copyright (c) Steve Scherf et al.
# Submitted via: EasyCDDAExtractor 5.0.6
#
DISCID=a40ad80d
DTITLE=Pena Branca e Xavantinho  - Coração Matuto
DYEAR=2003
DGENRE=Country
TTITLE0=Planeta Água
TTITLE1=Estrada
TTITLE2=Lambada de Serpente
TTITLE3=Engenho de Flores
TTITLE4=Cravos da Primavera
TTITLE5=Quando O Amor Se Vai
TTITLE6=Carreiro Velho
TTITLE7=Leilão
TTITLE8=Divina Estrela
TTITLE9=Morro Velho
TTITLE10=Amor de Violeiro (Zé Dunda)
TTITLE11=Serenata
TTITLE12=Vida No Campo
EXTD=
EXTT0=
EXTT1=
EXTT2=
EXTT3=
EXTT4=
EXTT5=
EXTT6=
EXTT7=
EXTT8=
EXTT9=
EXTT10=
EXTT11=
EXTT12=
PLAYORDER=
